<svg xmlns="http://www.w3.org/2000/svg" viewBox="0 0 600 800"><defs><linearGradient id="sky" x2=".3" y2="1"><stop stop-color="#163F6D"/><stop offset="1" stop-color="#92B9D6"/></linearGradient><linearGradient id="wall" x2="1" y2="1"><stop stop-color="#DCE7ED"/><stop offset="1" stop-color="#8BA8BE"/></linearGradient></defs><path fill="url(#sky)" d="M0 0h600v800H0z"/><circle cx="454" cy="280" r="95" fill="#F4DDB0" opacity=".62"/><path d="M0 405 600 350v450H0Z" fill="#62849D"/><path d="m62 368 310-42 143 65v233L62 677Z" fill="url(#wall)"/><path d="m372 326 143 65v233l-143-32Z" fill="#668DA9"/><path d="m49 365 323-52 160 71-14 17-146-63-321 42Z" fill="#24496A"/><g fill="#355D7E"><path d="m90 401 40-5v50l-40 5ZM156 393l40-5v50l-40 5ZM222 385l40-5v50l-40 5ZM289 377l40-5v50l-40 5ZM90 479l40-5v50l-40 5ZM156 471l40-5v50l-40 5ZM222 463l40-5v50l-40 5ZM289 455l40-5v50l-40 5Z"/></g><g fill="#EFD9AA"><path d="m98 407 24-3v31l-24 3ZM164 477l24-3v31l-24 3ZM297 383l24-3v31l-24 3Z"/></g><path d="M231 633v-68a39 39 0 0 1 78-7v64Z" fill="#24496A"/><path d="M249 630v-65a21 21 0 0 1 42-4v64Z" fill="#A7C5D7"/><path d="m0 706 600-87v181H0Z" fill="#345D78"/><path d="m267 629-80 171h160l-57-175Z" fill="#7896AA"/><g fill="#183F5A"><path d="M31 634V499h7v135Z"/><ellipse cx="34" cy="486" rx="42" ry="78"/><path d="M542 660V504h9v156Z"/><ellipse cx="547" cy="490" rx="43" ry="86"/></g><g fill="#E0EAF1"><circle cx="396" cy="678" r="9"/><path d="m385 691 23-3 7 44h-34Z"/><circle cx="433" cy="694" r="9"/><path d="m423 705 23 1 6 42h-34Z"/></g></svg>
